<svg width="56" height="57" fill="none" xmlns="http://www.w3.org/2000/svg"><path d="M55.5 27.862C55.569 43.06 43.313 55.43 28.138 55.5 12.94 55.569.57 43.29.5 28.138.431 12.962 12.687.57 27.862.5 43.06.431 55.43 12.687 55.5 27.862Z" stroke="#000"/><path d="M42.187 18.002c-2.037-.585-4.144-1.428-6.275-2.271v-.047s-.093-.164-.14-.257c-.023-.07-.07-.117-.094-.188-1.31-2.715-4.729-3.067-7.585-2.177h.07s-.047 0-.093.024c-2.505-.586-4.963-.796-7.328-.211-10.512 2.903-12.08 8.077-12.455 14.28-.538 6.439-.89 11.261-3.324 16.786.164.258.351.515.538.773.07.094.14.187.211.304 5.314 7.422 16.458 12.9 26.759 10.652l.492-.07c-1.194-8.217 5.993-16.247 10.02-20.344.842-.866 2.083-2.037 3.324-3.278 5.525-4.963 6.813-10.98-4.12-13.976Z" fill="#0A1527"/><path d="M44.574 26.5a1.18 1.18 0 0 1-1.171 1.195 1.18 1.18 0 0 1-1.194-1.171c0-.655.515-1.194 1.17-1.194a1.18 1.18 0 0 1 1.195 1.17ZM29.45 21.117a5.41 5.41 0 0 1-5.407 5.408 5.395 5.395 0 0 1-5.408-5.408 5.395 5.395 0 0 1 5.408-5.408 5.395 5.395 0 0 1 5.408 5.408Z" fill="#fff"/><path d="M27.836 21.162a3.817 3.817 0 1 1-7.633-.002 3.817 3.817 0 0 1 7.633.002Z" fill="#00000F"/><path d="M48.788 29.1c-1.357 1.24-2.973 2.177-4.635 2.973a28.718 28.718 0 0 1-5.197 1.896c-1.803.468-3.676.82-5.549.632-1.896-.164-3.816-.82-5.056-2.247l.07-.07c1.545.983 3.324 1.334 5.057 1.404 1.779.047 3.581-.094 5.337-.445 1.78-.374 3.512-.89 5.174-1.592 1.662-.679 3.325-1.498 4.753-2.622l.047.07Z" fill="#fff"/></svg>
