<svg width="56" height="56" viewBox="0 0 56 56" fill="none" xmlns="http://www.w3.org/2000/svg"><path d="M48 33.5c-1 .6-2.1.7-3 .2-1.1-.7-1.8-2.1-1.8-4.1v-6.2c0-2.9-1-5-3-5.5-3.4-1-5.9 3-6.8 4.6l-5.8 9.4V20.3c0-2.7-1-4.2-2.6-4.7-1-.4-2.7-.2-4.3 2.2l-13 21a22.8 22.8 0 0 1 20-33.6A22.8 22.8 0 0 1 50 27.9v.1c.1 2.5-.6 4.4-2.1 5.4ZM55 28v-.1A27.9 27.9 0 0 0 27.6 0 27.8 27.8 0 0 0 0 28c0 15.4 12.4 28 27.6 28a27 27 0 0 0 18.7-7.5c1-1 1-2.5.1-3.6-1-1-2.5-1-3.5-.1a22.4 22.4 0 0 1-32.2-1.4l11.8-19v8.8c0 4.2 1.6 5.5 3 6 1.3.3 3.4 0 5.6-3.5l6.5-10.5.5-.8v5.3c0 3.9 1.6 7 4.3 8.6a7.9 7.9 0 0 0 8.1-.4c3.2-2 4.8-5.6 4.6-9.9Z" fill="#0A1527"/></svg>
