<svg width="53" height="57" viewBox="0 0 53 57" fill="none" xmlns="http://www.w3.org/2000/svg"><path d="m16.9 4.3-.8-.4c.8 0 2.3 0 3 .4 2.4.8 4.7 2 7.4 4.6l.8.8h.8c3.8-.8 7.7 0 11.2 1.6.8.4 2.3 1.1 2.3 1.5 0 0 0 .4.4 1.2.4 1.6 0 2.7-.4 3.9-.4.4-.4.8 0 1.2 0 .3.4.7.8.7.8 0 1.5-1.1 2-3v-.9l.7-.3c2 1.9 3 4.6 3.5 6.6v.4l-.4-.4c-.4-.8-1.2-1.2-1.6-2-1.1-.8-2.3-.8-5.8-1.1-3 0-4.6-.4-6.1-.8-3.1-1.2-4.3-2.4-7.8-6.6-1.5-2-2.3-3.1-3.5-4A10 10 0 0 0 17 4.4Z" fill="#0A1527"/><path d="M42.8 8.6c0-1.2.4-2.4.8-3.2 0-.3 0-.3.3-.3v.3c-.7.8-.7 2-.7 3.2.4 1.5.4 1.9 1.9 3.5.8.7 1.5 1.9 2 2.3l.7.8-.8-.4c-.7-.8-2.3-2-2.7-2.4H44l-.3 1.2c0 1.6-.4 2.7-.8 3.5-.4.4-.4.4 0 0 .4-.8.4-.8.4-2.3 0-3.1-.4-4-2.4-5-.7-.5-1.1-.9-1.9-1.2-.4 0-.8-.4-.8-.4l3.1.7 1.6.4c-.4.4-.4 0 0-.7Zm-24.8 5c-1.5-2-2.3-5-2-7.4v-.8h.5c.7 0 1.5.4 2.3.8 1.1 1.2 1.5 2 2.3 5 0 .9.4 2 .4 2 0 .4.8 1.6 1.5 2.4.4.3 0 .7-.7.7-1.2 0-3.1-1.1-4.3-2.7Zm22.8 15.2c-7-2.7-9.2-5-9.2-9.4v-1.1s.3.4.7.4c1.2 1.1 2.7 2 7 2.3 2.7.4 3.9.8 5.4 1.2 4.3 1.5 7 4.2 7.4 8.1 0 1.2 0 3.1-.4 4.3 0 .8-.8 2.3-.8 2.7V37c0-1.5-.8-2.7-2-3.8-1.5-1.6-3.4-2.4-8-4.3Zm-5 1.1c0-.3 0-1.1-.4-1.5V28l.4.4c.4.4.8 1.2 1.2 2v1.9c0 1.1 0 1.1-.4 2 0 .7-.4 1.5-1.2 2.3a8.7 8.7 0 0 1-5 2.3h-2.7c-2.7 0-4.3.4-5.8.8h-.4l2-1.2c1-.8 2.3-.8 5-1.6 1.1.4 2.7 0 3 0 3.2-1.1 5-3.8 4.3-7Z" fill="#0A1527"/><path d="M39.3 35.4c-.8-2-1.2-3.9-.8-5.8 0-.4 0-.4.4-.4 0 0 .4 0 .4.4l3.5 1.9c2.7 1.6 4.2 2.7 5.4 4.3.8 1.1 1.5 2.7 2 4.3v4.2c-.8 3.1-2.4 5.5-5.1 6.6-.4.4-.8.4-.8.4s0-.4.4-.7c.8-2 .8-3.5.4-5.5-.4-1.2-1.2-2.7-2.7-5-2.3-2.8-2.7-3.5-3.1-4.7Zm-26 10.9A22 22 0 0 1 22 42h4.6c2 .4 3.5 1.6 4.3 2.7.8 1.2 1.1 2.4 1.5 4.7 0 .8.4 2 .4 2 .4 1.1.8 2.3 1.6 2.7 1.1.7 3 .7 4.6 0h.8s-.8.7-1.6 1.1c-.7.4-1.5.8-2.3.8-1.5 0-3-.8-4.2-2.7l-1.2-2.4c-1.2-2.7-2-3.5-3.1-4.6a4.6 4.6 0 0 0-3.9-.4c-1.5.8-1.9 2.7-.7 4.3.3.4 1.1.7 1.9 1.1 1.2 0 2.3-.7 2.3-2V49c0-.8-.4-1.2-1.1-1.6-1.2-.3-2.4 0-2.4 1.2 0 .4.4.8.8.8s.4 0 0 0C23 49 23 47.8 23.8 47c1.2-1.2 3.1-.4 3.9.7.4.4.4 1.6 0 2.4-.8 1.5-2.3 2.3-3.9 2-2 0-2.3-.5-3.9-1.6-2.3-2.4-3.4-3.2-7-3.5h-.7c.4-.4 1.2-.8 1.2-.8Z" fill="#0A1527"/><path fill-rule="evenodd" clip-rule="evenodd" d="M1.8 1.6c8 9.7 13.5 14 14.3 14.7.4.8.4 1.2-.4 2-.8 0-1.6.4-2.3.4-.4 0-.8-.4-.8-.4s-.4 0-2-3.1L6.5 8.6l4.3 7.3c.7 1.6 0 2.4 0 2.4 0 .4 0 .8-.8 1.1-1.2 1.2-1.6 2.4-2 5.1 0 2.7-1.1 4.7-3.8 7.8-1.6 2-2 2.3-2.3 3-.4 1.3-.4 1.6-.4 2.8 0 1.2 0 2.3.4 3.5.4 1.2.7 2 1.5 3.1.8 1.6 1.2 2.4 1.2 2.7 0 .4 0 .4 1.1 0 3.1-.7 5.5-1.9 7-3.5.8-.7 1.2-1.5 1.2-2.7 0-.8 0-1.1-.4-1.5a6.6 6.6 0 0 0-2.3-2.4c-2-1.1-2.8-2-2.8-3.5 0-1.1 0-2 1.2-4.2 1.2-2.4 1.2-3.2 1.6-5.5 0-1.5.3-2 .7-2.3 0-.4.4-.8 1.6-.8 2-.4 3-.8 3.8-1.6.8-.7 1.2-1.5 1.2-2.7V16l-.4-.3C16.5 13.6.6 0 .6 0s.4.8 1.2 1.6Zm3.8 38c.4-.7 0-1.5-.4-1.9-.7-.4-1.5 0-1.5.4 0 0 0 .4.4.4s.4.4 0 .8-.4.8 0 .8c.4.3 1.1.3 1.5-.4Zm14-18.2c-.8.4-1.6 1.2-2 2v1.9c.4.4.8.8 1.6.8 2 0 3.5-.8 3.8-2 0-.8-.3-2-1.5-2.3-.4-.4-1.2-.4-2-.4Zm2.3 1.5c.4-.3 0-.7-.4-1.1-.8-.4-2.3 0-2.3.8 0 .7.8 1.1 1.5 1.1.4 0 .8-.4 1.2-.8Z" fill="#0A1527"/></svg>
